<svg width="40" height="40" viewBox="0 0 40 40" fill="none" xmlns="http://www.w3.org/2000/svg">
<rect x="12" y="9" width="2.84451" height="21.6894" fill="white"/>
<path fill-rule="evenodd" clip-rule="evenodd" d="M21.9554 16.1113C23.1337 16.1113 24.0888 15.1561 24.0888 13.9779C24.0888 12.7997 23.1337 11.8445 21.9554 11.8445C20.7772 11.8445 19.822 12.7997 19.822 13.9779C19.822 15.1561 20.7772 16.1113 21.9554 16.1113ZM21.9554 18.9558C24.7046 18.9558 26.9333 16.7271 26.9333 13.9779C26.9333 11.2287 24.7046 9 21.9554 9C19.2062 9 16.9775 11.2287 16.9775 13.9779C16.9775 16.7271 19.2062 18.9558 21.9554 18.9558Z" fill="white"/>
<path fill-rule="evenodd" clip-rule="evenodd" d="M20.8797 23.5779L22.2511 27.8447H23.0221C24.2003 27.8447 25.1555 26.8895 25.1555 25.7113C25.1555 24.5331 24.2003 23.5779 23.0221 23.5779H20.8797ZM20.1776 30.6892H23.0221C25.7713 30.6892 28 28.4605 28 25.7113C28 22.9621 25.7713 20.7334 23.0221 20.7334H16.9775L20.1776 30.6892Z" fill="white"/>
</svg>
