<svg width="18" height="18" viewBox="0 0 18 18" fill="none" xmlns="http://www.w3.org/2000/svg">
<path fill-rule="evenodd" clip-rule="evenodd" d="M8.9925 6C8.9925 7.245 7.995 8.25 6.75 8.25C5.505 8.25 4.5 7.245 4.5 6C4.5 4.755 5.505 3.75 6.75 3.75C7.995 3.75 8.9925 4.755 8.9925 6ZM14.2425 7.125C14.2425 8.16 13.41 9 12.375 9C11.34 9 10.5 8.16 10.5 7.125C10.5 6.09 11.34 5.25 12.375 5.25C13.41 5.25 14.2425 6.09 14.2425 7.125ZM12.375 10.5C11.0025 10.5 8.25 11.19 8.25 12.5625V14.25H16.5V12.5625C16.5 11.19 13.7475 10.5 12.375 10.5ZM1.5 12.375C1.5 10.6275 5.0025 9.75 6.75 9.75C7.245 9.75 7.875 9.825 8.5275 9.96C6.9975 10.8075 6.75 11.925 6.75 12.5625V14.25H1.5V12.375Z" fill="#F2F2F2"/>
</svg>
